<?xml version="1.0" encoding="UTF-8" standalone="no"?>
<svg
   width="54.213913"
   height="52.502476"
   viewBox="0 0 54.213913 52.502476"
   version="1.1"
   id="svg18"
   xmlns:xlink="http://www.w3.org/1999/xlink"
   xmlns="http://www.w3.org/2000/svg"
   xmlns:svg="http://www.w3.org/2000/svg">
  <defs
     id="defs1">
    <path
       id="a"
       d="M 0,0.896 H 22.114 V 27.042 H 0 Z" />
    <path
       id="c"
       d="M 0,56.872 H 229.422 V 0 H 0 Z" />
  </defs>
  <g
     fill="none"
     fill-rule="evenodd"
     id="g18"
     transform="translate(0,-4.369664)">
    <path
       fill="#00a1e4"
       fill-rule="nonzero"
       d="m 0.93481,30.601959 c 0.041512,-0.076 0.079658,-0.154236 0.123414,-0.230235 0.50039,-0.862824 1.164586,-1.620589 1.961171,-2.23753 -0.315268,-1.25847 -0.135756,-2.565 0.51722,-3.691588 0.587902,-1.014824 1.520244,-1.792706 2.625365,-2.18947 0.740488,-0.266 1.124196,-1.080765 0.857171,-1.81953 -0.267024,-0.737647 -1.084927,-1.119883 -1.826536,-0.852765 -1.73678,0.623647 -3.20205,1.846353 -4.126537,3.441236 -1.047902,1.807235 -1.326146,3.914 -0.784244,5.930235 0.157073,0.580059 0.376976,1.132176 0.652976,1.649647"
       id="path1" />
    <path
       fill="#00a1e4"
       fill-rule="nonzero"
       d="M 11.781834,20.162241 C 10.627346,19.498359 9.80159,18.425418 9.456029,17.142359 9.110469,15.8593 9.287737,14.519241 9.955298,13.369182 c 0.666439,-1.150059 1.74239,-1.973764 3.03039,-2.316882 1.288,-0.344235 2.63322,-0.167647 3.787707,0.496235 1.15561,0.665 1.981366,1.736824 2.325805,3.019883 0.209805,0.780117 0.22439,1.58147 0.05498,2.348176 0.488048,0.15647 1.003024,0.240294 1.530341,0.240294 0.466732,0 0.923366,-0.06706 1.360927,-0.19 0.14922,-1.033823 0.08976,-2.095588 -0.18961,-3.133882 -0.543024,-2.016235 -1.841122,-3.701647 -3.655317,-4.74553 -1.209463,-0.695176 -2.550195,-1.04947 -3.91,-1.04947 -0.681024,0 -1.366536,0.088294 -2.043073,0.269353 -2.024,0.539823 -3.71478,1.832941 -4.762683,3.640176 -1.047902,1.808353 -1.326146,3.914 -0.784244,5.930236 0.543024,2.016235 1.84,3.701647 3.655317,4.745529 1.154488,0.663882 1.980244,1.735706 2.325805,3.018765 0.344439,1.283059 0.168293,2.623117 -0.499268,3.773176 -0.66644,1.151177 -1.74239,1.973765 -3.03039,2.318 -1.288,0.343118 -2.63322,0.16653 -3.78883,-0.497353 -0.313024,-0.17994 -0.600244,-0.393411 -0.86278,-0.630353 -0.709073,0.635942 -1.221805,1.459647 -1.474244,2.399589 -0.00561,0.02235 -0.00898,0.04582 -0.014586,0.06818 0.291708,0.226882 0.600244,0.435882 0.92561,0.623647 1.814195,1.043882 3.929073,1.321059 5.953073,0.781235 2.024,-0.54094 3.71478,-1.834058 4.762683,-3.641294 1.047903,-1.807235 1.326147,-3.914 0.784244,-5.930235 -0.543024,-2.016235 -1.841122,-3.70053 -3.655317,-4.744412"
       id="path2" />
    <path
       fill="#00a1e4"
       fill-rule="nonzero"
       d="m 20.68463,19.998506 c -1.024342,0 -2.017269,-0.195588 -2.938391,-0.56553 -0.481317,0.463824 -1.05239,0.829295 -1.697512,1.071824 -0.737122,0.278294 -1.108488,1.098647 -0.830244,1.831824 0.279366,0.734294 1.102878,1.104235 1.84,0.82594 1.599902,-0.602411 2.959707,-1.725646 3.866244,-3.169646 -0.07966,0.0022 -0.16044,0.0056 -0.240098,0.0056"
       id="path3" />
    <path
       fill="#ee1c25"
       fill-rule="nonzero"
       d="m 33.498322,41.243077 c 1.02883,0 2.027366,0.196705 2.952976,0.571117 0.48356,-0.472765 1.061365,-0.842706 1.714341,-1.088588 0.737122,-0.278294 1.108488,-1.098647 0.829122,-1.831824 -0.278244,-0.734294 -1.101756,-1.104235 -1.838878,-0.82594 -1.603268,0.604646 -2.96644,1.731234 -3.872976,3.179705 0.0718,-0.0011 0.14361,-0.0045 0.215415,-0.0045"
       id="path4" />
    <path
       fill="#ee1c25"
       fill-rule="nonzero"
       d="m 43.858195,38.607776 c -1.154488,-0.663882 -1.980244,-1.736823 -2.325805,-3.019882 -0.344439,-1.283059 -0.168292,-2.623117 0.499268,-3.773176 0.66644,-1.15006 1.74239,-1.972647 3.03039,-2.316883 1.288,-0.344235 2.63322,-0.167647 3.78883,0.496236 0.313024,0.181058 0.600244,0.394529 0.86278,0.63147 0.709074,-0.635941 1.221805,-1.460764 1.474244,-2.400706 0.0056,-0.02235 0.009,-0.04471 0.01459,-0.06818 -0.291708,-0.226883 -0.600244,-0.435883 -0.92561,-0.623647 -1.814195,-1.042765 -3.929073,-1.319941 -5.953073,-0.780118 -2.024,0.539824 -3.71478,1.832941 -4.762683,3.641294 -1.047902,1.807235 -1.326146,3.912883 -0.784244,5.929118 0.543024,2.016235 1.84,3.701647 3.655317,4.74553 1.154488,0.663882 1.980244,1.735705 2.325805,3.018764 0.344439,1.283059 0.168293,2.623118 -0.499268,3.774294 -0.66644,1.150059 -1.74239,1.972647 -3.03039,2.316882 -1.288,0.343118 -2.63322,0.16653 -3.78883,-0.497352 -1.154488,-0.663883 -1.980244,-1.736824 -2.324683,-3.018765 -0.208683,-0.773412 -0.223268,-1.566941 -0.05946,-2.328059 -0.497025,-0.162059 -1.019854,-0.250353 -1.557268,-0.250353 -0.456635,0 -0.90205,0.06482 -1.329513,0.182177 -0.14922,1.032705 -0.08863,2.093353 0.18961,3.131647 0.543025,2.015117 1.841122,3.700529 3.655317,4.744411 1.208342,0.695177 2.550195,1.050589 3.91,1.050589 0.681025,0 1.366537,-0.08941 2.043073,-0.269353 2.024,-0.540942 3.71478,-1.83406 4.762683,-3.641295 1.047903,-1.807235 1.326147,-3.914 0.784244,-5.930235 -0.543024,-2.016235 -1.84,-3.70053 -3.655317,-4.744411"
       id="path5" />
    <path
       fill="#ee1c25"
       fill-rule="nonzero"
       d="m 53.931746,32.27843 c -0.15595,-0.58006 -0.376975,-1.132177 -0.652975,-1.650765 -0.04039,0.07712 -0.07966,0.155353 -0.122293,0.230235 -0.501512,0.863941 -1.164585,1.621706 -1.962293,2.238647 0.31639,1.25847 0.135756,2.565 -0.516097,3.69047 -0.589025,1.014824 -1.521366,1.793824 -2.625366,2.190589 -0.740488,0.266 -1.125317,1.080765 -0.85717,1.818412 0.267024,0.738764 1.084926,1.121 1.825414,0.853882 1.73678,-0.624765 3.20317,-1.846353 4.126536,-3.441235 1.047903,-1.808353 1.326147,-3.914 0.784244,-5.930236"
       id="path6" />
    <path
       fill="#ffcb02"
       fill-rule="nonzero"
       d="m 40.323712,8.286124 c 0.497025,0.857235 0.821269,1.800529 0.961512,2.789647 1.267805,0.35094 2.326927,1.165705 2.985513,2.302352 0.587902,1.014824 0.797707,2.208471 0.591268,3.359648 -0.139122,0.772294 0.376975,1.511058 1.152244,1.648529 0.77639,0.138588 1.516878,-0.37553 1.656,-1.147823 0.325366,-1.810589 -0.0045,-3.687118 -0.928976,-5.280883 C 45.693371,10.149241 44.001468,8.856124 41.977468,8.3163 41.381712,8.157594 40.779224,8.071535 40.177858,8.052535 c 0.04937,0.077118 0.09985,0.154236 0.145854,0.233589 m 1.19858,19.85567 c -0.163804,-0.648235 -0.195219,-1.323294 -0.08415,-2.001706 0.12678,-0.773411 -0.400536,-1.504353 -1.178048,-1.630647 -0.777513,-0.126294 -1.510147,0.399 -1.636927,1.17353 -0.276,1.683176 0.01571,3.422235 0.819024,4.926588 0.03927,-0.07153 0.07742,-0.144177 0.118927,-0.215706 0.51161,-0.882941 1.178049,-1.642941 1.96117,-2.252059"
       id="path7" />
    <path
       fill="#ffcb02"
       fill-rule="nonzero"
       d="M 53.159283,23.03113 C 52.111381,21.223894 50.4206,19.930776 48.395478,19.389835 46.3726,18.850012 44.257722,19.127188 42.443527,20.171071 c -1.154488,0.663882 -2.499708,0.84047 -3.787708,0.496235 -1.288,-0.343118 -2.365073,-1.165706 -3.031512,-2.316882 -0.666439,-1.15006 -0.843707,-2.490118 -0.498146,-3.773177 0.344439,-1.283059 1.170195,-2.354882 2.325805,-3.019882 0.304049,-0.174353 0.62156,-0.312942 0.948049,-0.420236 -0.199708,-0.928764 -0.659708,-1.782647 -1.348586,-2.47 -0.01683,-0.015647 -0.03478,-0.029058 -0.05049,-0.044705 -0.33322,0.135235 -0.658586,0.292823 -0.974976,0.475 -1.815317,1.042764 -3.113415,2.728176 -3.655317,4.744411 -0.543025,2.016236 -0.26478,4.121883 0.783122,5.929118 1.047902,1.808353 2.739805,3.10147 4.763805,3.641294 2.024,0.540941 4.137756,0.263765 5.95195,-0.780118 1.15561,-0.665 2.50083,-0.84047 3.78883,-0.497352 1.288,0.344235 2.363951,1.166823 3.03039,2.316882 0.667561,1.151176 0.843708,2.491235 0.499269,3.773176 -0.345561,1.28306 -1.171317,2.356 -2.326927,3.019883 -1.153366,0.663882 -2.499707,0.84047 -3.787708,0.497353 -0.783122,-0.209 -1.486585,-0.597942 -2.068878,-1.126589 -0.37922,0.343118 -0.709073,0.744353 -0.972731,1.199236 -0.233366,0.40347 -0.403903,0.830411 -0.516098,1.26853 0.823512,0.646 1.77717,1.124352 2.819464,1.403764 2.024,0.539823 4.137756,0.262647 5.953073,-0.781236 1.208341,-0.695176 2.187805,-1.674235 2.867707,-2.847764 0.339951,-0.586765 0.605854,-1.223824 0.78761,-1.896647 0.541902,-2.017353 0.263658,-4.121883 -0.784244,-5.930236"
       id="path8" />
    <path
       fill="#00a551"
       fill-rule="nonzero"
       d="m 14.290854,8.037782 c 1.00078,0 1.991463,0.193353 2.926048,0.573353 0.935708,-0.90194 2.163122,-1.400411 3.467952,-1.400411 1.175804,0 2.31795,0.415764 3.215512,1.170176 0.602488,0.506294 1.502292,0.429176 2.010536,-0.169882 0.508244,-0.600177 0.43083,-1.49653 -0.170536,-2.002824 -1.411415,-1.185823 -3.207659,-1.83853 -5.055512,-1.83853 -2.095805,0 -4.065952,0.81253 -5.54805,2.288942 -0.425219,0.424706 -0.795462,0.890765 -1.107365,1.387 0.08639,-0.00223 0.173903,-0.00782 0.261415,-0.00782 m 18.863366,11.73373 c -0.508244,-0.876235 -0.83361,-1.824 -0.973854,-2.796353 -0.658586,-0.182177 -1.272293,-0.496236 -1.81644,-0.938824 -0.61034,-0.497353 -1.509024,-0.40794 -2.00717,0.20006 -0.499268,0.608 -0.40839,1.503234 0.20083,1.99947 1.336243,1.088588 3.00795,1.706647 4.73239,1.75694 -0.046,-0.07265 -0.092,-0.14641 -0.135756,-0.221293"
       id="path9" />
    <path
       fill="#00a551"
       fill-rule="nonzero"
       d="M 40.323712,8.286124 C 39.982639,7.698241 39.561907,7.150594 39.067127,6.657712 37.586151,5.182418 35.616005,4.369888 33.521322,4.369888 c -2.095805,0 -4.065951,0.81253 -5.546927,2.287824 -1.482097,1.476412 -2.297756,3.439 -2.297756,5.525647 0,1.328882 -0.519463,2.577294 -1.461902,3.517235 -0.943561,0.938824 -2.19678,1.456294 -3.529659,1.456294 -1.334,0 -2.588341,-0.51747 -3.53078,-1.456294 -0.94244,-0.939941 -1.461903,-2.188353 -1.461903,-3.517235 0,-0.361 0.04151,-0.715294 0.116683,-1.05953 -0.907659,-0.29394 -1.88039,-0.323 -2.82283,-0.07153 -0.02356,0.0056 -0.04488,0.01453 -0.06732,0.02123 -0.05161,0.364353 -0.07966,0.735412 -0.07966,1.109824 0,2.087765 0.81678,4.050353 2.297756,5.526765 1.482098,1.475294 3.452244,2.287823 5.548049,2.287823 2.094683,0 4.06483,-0.81253 5.545805,-2.287823 1.482098,-1.476412 2.297756,-3.439 2.297756,-5.526765 0,-1.327765 0.519463,-2.576177 1.463024,-3.516118 0.94244,-0.938823 2.195659,-1.456294 3.529659,-1.456294 1.332878,0 2.586098,0.51747 3.529659,1.456294 0.942439,0.939941 1.461902,2.188353 1.461902,3.516118 0,1.328882 -0.519464,2.577294 -1.461903,3.517235 -0.565463,0.563294 -1.244243,0.970118 -1.982487,1.209294 0.108829,0.499589 0.291707,0.985765 0.556488,1.440647 0.233365,0.402353 0.518341,0.762236 0.843707,1.07853 0.961512,-0.387824 1.844488,-0.967883 2.598439,-1.718941 1.482097,-1.476412 2.297756,-3.439 2.297756,-5.526765 0.0011,-1.390353 -0.361268,-2.724824 -1.04117,-3.897235"
       id="path10" />
    <path
       fill="#ec008c"
       fill-rule="nonzero"
       d="m 21.05981,41.45923 c 0.512732,0.88294 0.83922,1.837411 0.97722,2.817588 0.645121,0.183294 1.247609,0.492882 1.781658,0.928764 0.60922,0.496236 1.509024,0.406824 2.00717,-0.201176 0.498147,-0.606883 0.40839,-1.502118 -0.20195,-1.99947 -1.325025,-1.079648 -2.982147,-1.697707 -4.693123,-1.755824 0.04376,0.06929 0.08751,0.138588 0.129025,0.210117"
       id="path11" />
    <path
       fill="#ec008c"
       fill-rule="nonzero"
       d="m 29.968102,45.541212 c 0.94244,-0.939941 2.19678,-1.456294 3.529659,-1.456294 1.334,0 2.58722,0.516353 3.529659,1.456294 0.94356,0.938823 1.463024,2.188353 1.463024,3.516117 0,0.354294 -0.04039,0.703 -0.112195,1.041647 0.91439,0.301765 1.898341,0.33306 2.849756,0.07935 0.01234,-0.0034 0.02356,-0.0078 0.03478,-0.01118 0.05273,-0.364353 0.07966,-0.735412 0.07966,-1.109824 0,-2.087764 -0.815659,-4.050353 -2.297756,-5.525647 -1.480976,-1.476411 -3.451122,-2.28894 -5.546927,-2.28894 -2.094683,0 -4.06483,0.812529 -5.546927,2.28894 -1.480975,1.475294 -2.297756,3.437883 -2.297756,5.525647 0,1.327765 -0.519463,2.577294 -1.461902,3.516118 -0.94244,0.938824 -2.195659,1.456294 -3.529659,1.456294 -1.332878,0 -2.58722,-0.51747 -3.529659,-1.456294 -0.942439,-0.938824 -1.461902,-2.188353 -1.461902,-3.516118 0,-1.327764 0.519463,-2.577294 1.461902,-3.516117 0.573318,-0.571118 1.263318,-0.98353 2.013903,-1.221589 -0.10883,-0.499588 -0.29283,-0.984646 -0.556488,-1.439529 -0.233366,-0.40347 -0.519463,-0.763353 -0.845951,-1.079647 -0.97161,0.387824 -1.865805,0.971235 -2.628732,1.731235 -1.482097,1.475294 -2.297756,3.437883 -2.297756,5.525647 0,1.390353 0.36239,2.724824 1.042293,3.898353 0.339951,0.586765 0.760683,1.134412 1.255463,1.627294 1.482098,1.476412 3.451122,2.288942 5.546927,2.288942 2.095805,0 4.065951,-0.81253 5.546927,-2.288941 1.482097,-1.475295 2.297756,-3.437883 2.297756,-5.525648 0,-1.327764 0.519463,-2.577294 1.461902,-3.516117"
       id="path12" />
    <path
       fill="#ec008c"
       fill-rule="nonzero"
       d="m 39.923176,53.192847 c -1.005269,0 -2.001561,-0.195588 -2.940634,-0.578941 -0.937952,0.912 -2.172098,1.416059 -3.484781,1.416059 -1.175805,0 -2.317951,-0.415765 -3.216634,-1.16906 -0.601366,-0.506293 -1.50117,-0.430293 -2.009415,0.168766 -0.508244,0.600176 -0.431951,1.496529 0.170537,2.002823 1.411414,1.185824 3.206536,1.839647 5.055512,1.839647 2.095805,0 4.06483,-0.813647 5.546927,-2.288941 0.429707,-0.428059 0.801073,-0.89747 1.11522,-1.398176 -0.07854,0.0022 -0.158196,0.0078 -0.236732,0.0078"
       id="path13" />
    <path
       fill="#404099"
       fill-rule="nonzero"
       d="M 13.858678,52.955459 C 13.358288,52.091518 13.0318,51.1404 12.8938,50.143459 11.641702,49.786929 10.596044,48.977753 9.943068,47.852282 9.355166,46.837459 9.145361,45.643812 9.3518,44.492635 c 0.139122,-0.772294 -0.376976,-1.50994 -1.152244,-1.64853 -0.775268,-0.138587 -1.516878,0.37553 -1.656,1.147824 -0.325366,1.810589 0.00449,3.686 0.930098,5.282 1.04678,1.807236 2.738683,3.100353 4.762683,3.640177 0.582292,0.15647 1.172439,0.241412 1.761463,0.262647 -0.04712,-0.07376 -0.09537,-0.146412 -0.139122,-0.221294"
       id="path14" />
    <g
       transform="translate(0,25.578)"
       id="g15">
      <mask
         id="b"
         fill="#ffffff">
        <use
           xlink:href="#a"
           id="use14" />
      </mask>
      <path
         fill="#404099"
         fill-rule="nonzero"
         d="m 21.05981,15.881094 c -1.047903,-1.808353 -2.738683,-3.100353 -4.762683,-3.641294 -2.024,-0.539824 -4.138878,-0.262647 -5.953073,0.780118 -1.154488,0.665 -2.499708,0.841588 -3.787708,0.497353 C 5.268346,13.174153 4.191273,12.350447 3.524834,11.200388 2.858395,10.050329 2.681127,8.709153 3.026688,7.427212 3.371127,6.144152 4.198005,5.071212 5.352493,4.407329 6.50698,3.743447 7.8522,3.56686 9.1402,3.911094 c 0.783122,0.209 1.486585,0.596824 2.068878,1.126588 C 11.58942,4.694565 11.919273,4.293329 12.182932,3.837329 12.416298,3.434976 12.585712,3.008035 12.697907,2.5688 11.874395,1.923918 10.920737,1.444447 9.878444,1.165035 7.854444,0.626329 5.740688,0.903505 3.926493,1.946271 2.717029,2.641447 1.737566,3.621624 1.057663,4.794035 0.717713,5.381918 0.45181,6.01786 0.271176,6.6918 c -0.543025,2.016235 -0.26478,4.121882 0.783122,5.929118 1.047902,1.808352 2.739804,3.100352 4.763804,3.641294 2.024,0.539823 4.137757,0.262647 5.951952,-0.780118 1.15561,-0.665 2.500829,-0.84047 3.788829,-0.497353 1.288,0.343118 2.363951,1.166824 3.03039,2.316883 0.667561,1.150058 0.843708,2.491235 0.499269,3.773176 -0.34444,1.283059 -1.171318,2.356 -2.325805,3.019882 -0.314147,0.18106 -0.642879,0.321883 -0.980586,0.429177 0.198586,0.928764 0.659707,1.783764 1.349707,2.471117 0.01683,0.01676 0.03478,0.0313 0.05161,0.04694 0.343317,-0.13747 0.67878,-0.298412 1.005269,-0.486177 1.814195,-1.043882 3.112292,-2.729294 3.655317,-4.74553 0.541902,-2.016234 0.263658,-4.121882 -0.784244,-5.929117"
         mask="url(#b)"
         id="path15" />
    </g>
    <path
       fill="#404099"
       fill-rule="nonzero"
       d="m 12.691737,33.088835 c 0.163804,0.647118 0.19522,1.322177 0.08415,2.001706 -0.12678,0.773412 0.400536,1.504353 1.178049,1.630647 0.77639,0.126294 1.510146,-0.399 1.636926,-1.17353 0.276,-1.684293 -0.01571,-3.422235 -0.819024,-4.926587 -0.03927,0.07153 -0.07741,0.144176 -0.118927,0.215705 -0.51161,0.882942 -1.178049,1.642942 -1.96117,2.25206"
       id="path16" />
    <mask
       id="d"
       fill="#ffffff">
      <use
         xlink:href="#c"
         id="use17" />
    </mask>
  </g>
</svg>
